<svg xmlns="http://www.w3.org/2000/svg" xmlns:xlink="http://www.w3.org/1999/xlink" viewBox="0 0 179.48 267.48"><defs><clipPath id="clip-path"><polygon points="127.59 1.46 55.02 1.46 3.43 53.05 3.43 125.9 72.64 213.37 109.63 213.37 178.91 125.54 178.91 52.25 127.59 1.46" style="fill:none"/></clipPath></defs><title>Asset 7</title><g id="Layer_2" data-name="Layer 2"><g id="Layer_1-2" data-name="Layer 1"><g id="Layer_1-2-2" data-name="Layer 1-2"><polygon points="109.59 229.8 109.59 266.7 72.78 229.8 109.59 229.8" style="fill:#f05a24"/><polygon points="72.75 229.8 109.56 266.7 72.75 266.7 72.75 229.8" style="fill:#faaf3b"/><polygon points="108.77 267.48 71.96 230.57 73.51 229.02 110.33 265.93 108.77 267.48" style="fill:#fff"/><g style="clip-path:url(#clip-path)"><polygon points="178.71 53.01 178.71 125.58 127.43 74.3 178.71 53.01" style="fill:#662d90"/><polygon points="178.43 125.42 132.11 213.23 80.19 151.46 71.34 97.53 127.43 74.31 178.43 125.42" style="fill:#9d005d"/><polygon points="178.71 53.01 127.43 74.3 106.13 53.01 178.71 53.01" style="fill:#0071bb"/><polygon points="179.18 52.49 106.13 53.01 54.86 1.73 127.43 1.73 179.18 52.49" style="fill:#29aae1"/><polygon points="132.12 213.23 91.14 213.14 80.25 151.17 132.12 213.23" style="fill:#de272d"/><polygon points="127.43 74.3 71.34 97.53 63.62 53.01 106.13 53.01 127.43 74.3" style="fill:#662d90"/><polygon points="106.13 53.01 63.62 53.01 54.86 1.73 106.13 53.01" style="fill:#0071bb"/><polygon points="80.39 150.69 91.14 213.14 53.42 213.23 3.5 125.58 44.51 107.24 80.39 150.69" style="fill:#f05a24"/><polygon points="81.38 150.25 45.21 107.03 71.34 96.42 81.38 150.25" style="fill:#de272d"/><polygon points="63.39 52 71.1 96.52 45.25 107.04 3.45 58.5 3.59 53.01 63.39 52" style="fill:#9d005d"/><polygon points="54.86 1.73 63.62 53.01 3.5 53.01 54.86 1.73" style="fill:#662d90"/><polygon points="44.04 107.18 3.5 125.58 3.5 59.13 44.04 107.18" style="fill:#de272d"/><rect x="115.69" y="-23.92" width="2.19" height="175.15" transform="translate(-10.8 101.22) rotate(-45)" style="fill:#fff"/><polygon points="3.92 126.59 3.08 124.57 178.29 51.99 179.13 54.02 3.92 126.59" style="fill:#fff"/><rect x="3.5" y="51.91" width="175.22" height="2.19" style="fill:#fff"/><polygon points="131.32 213.72 0 56.11 1.92 54.49 133.25 212.09 131.32 213.72" style="fill:#fff"/><polygon points="89.32 213.48 53.8 0.44 56.28 0 91.85 213.31 89.32 213.48" style="fill:#fff"/></g></g></g></g></svg>