<svg xmlns="http://www.w3.org/2000/svg" viewBox="0 0 175.25 264.97"><defs><style>.cls-1{fill:#f05a24;}.cls-2{fill:#faaf3b;}.cls-3{fill:#662d90;}.cls-4{fill:#9d005d;}.cls-5{fill:#0071bb;}.cls-6{fill:#29aae1;}.cls-7{fill:#de272d;}</style></defs><title>Asset 5</title><g id="Layer_2" data-name="Layer 2"><g id="Layer_1-2" data-name="Layer 1"><polygon class="cls-1" points="106.13 228.07 106.13 257.83 76.36 228.07 106.13 228.07"/><polygon class="cls-2" points="69.29 264.97 98.55 264.97 69.29 235.71 69.29 264.97"/><polygon class="cls-3" points="132.47 77 175.25 118.28 175.25 59.49 132.47 77"/><polygon class="cls-4" points="122.04 81.27 69.33 102.86 76.24 145.88 118.12 196.23 171.09 128.64 122.04 81.27"/><polygon class="cls-5" points="114.08 59.27 124.39 69.07 148.72 59.27 114.08 59.27"/><polygon class="cls-6" points="123.97 0 52.86 0 61.86 8.69 103.47 48.88 173.79 48.87 123.97 0"/><polygon class="cls-7" points="79.47 165.97 86.66 211.4 106.13 211.66 111.58 204.33 79.47 165.97"/><polygon class="cls-3" points="99.26 59.27 61.75 59.27 67.64 92.31 113.87 73.38 99.26 59.27"/><polygon class="cls-5" points="55.56 17.07 60.67 48.88 88.49 48.87 55.56 17.07"/><polygon class="cls-1" points="37.54 115.87 4.17 129.54 69.18 211.5 76.36 211.46 66.43 150.39 37.54 115.87"/><polygon class="cls-7" points="59.45 106.9 47.7 111.71 63.13 130.21 59.45 106.9"/><polygon class="cls-4" points="3.73 59.27 40.72 103.34 57.75 96.36 51.8 59.27 3.73 59.27"/><polygon class="cls-3" points="1.48 48.88 50.13 48.87 43.52 7.75 1.48 48.88"/><polygon class="cls-7" points="0 71.02 0.04 120.33 30.76 107.77 0 71.02"/></g></g></svg>